
<svg width="100" height="100" viewBox="0 0 100 100" fill="none" xmlns="http://www.w3.org/2000/svg">
  <path d="M10 10C12 8 15 10 15 12C15 14 12 15 10 15C8 15 8 12 10 10Z" fill="#FF6B35" fill-opacity="0.2"/>
  <path d="M30 10C32 8 35 10 35 12C35 14 32 15 30 15C28 15 28 12 30 10Z" fill="#2EC4B6" fill-opacity="0.2"/>
  <path d="M50 10C52 8 55 10 55 12C55 14 52 15 50 15C48 15 48 12 50 10Z" fill="#FF9F1C" fill-opacity="0.2"/>
  <path d="M70 10C72 8 75 10 75 12C75 14 72 15 70 15C68 15 68 12 70 10Z" fill="#FF6B35" fill-opacity="0.2"/>
  <path d="M90 10C92 8 95 10 95 12C95 14 92 15 90 15C88 15 88 12 90 10Z" fill="#2EC4B6" fill-opacity="0.2"/>
  
  <path d="M20 30C22 28 25 30 25 32C25 34 22 35 20 35C18 35 18 32 20 30Z" fill="#FF9F1C" fill-opacity="0.2"/>
  <path d="M40 30C42 28 45 30 45 32C45 34 42 35 40 35C38 35 38 32 40 30Z" fill="#FF6B35" fill-opacity="0.2"/>
  <path d="M60 30C62 28 65 30 65 32C65 34 62 35 60 35C58 35 58 32 60 30Z" fill="#2EC4B6" fill-opacity="0.2"/>
  <path d="M80 30C82 28 85 30 85 32C85 34 82 35 80 35C78 35 78 32 80 30Z" fill="#FF9F1C" fill-opacity="0.2"/>
  
  <path d="M10 50C12 48 15 50 15 52C15 54 12 55 10 55C8 55 8 52 10 50Z" fill="#2EC4B6" fill-opacity="0.2"/>
  <path d="M30 50C32 48 35 50 35 52C35 54 32 55 30 55C28 55 28 52 30 50Z" fill="#FF9F1C" fill-opacity="0.2"/>
  <path d="M50 50C52 48 55 50 55 52C55 54 52 55 50 55C48 55 48 52 50 50Z" fill="#FF6B35" fill-opacity="0.2"/>
  <path d="M70 50C72 48 75 50 75 52C75 54 72 55 70 55C68 55 68 52 70 50Z" fill="#2EC4B6" fill-opacity="0.2"/>
  <path d="M90 50C92 48 95 50 95 52C95 54 92 55 90 55C88 55 88 52 90 50Z" fill="#FF9F1C" fill-opacity="0.2"/>
  
  <path d="M20 70C22 68 25 70 25 72C25 74 22 75 20 75C18 75 18 72 20 70Z" fill="#FF6B35" fill-opacity="0.2"/>
  <path d="M40 70C42 68 45 70 45 72C45 74 42 75 40 75C38 75 38 72 40 70Z" fill="#2EC4B6" fill-opacity="0.2"/>
  <path d="M60 70C62 68 65 70 65 72C65 74 62 75 60 75C58 75 58 72 60 70Z" fill="#FF9F1C" fill-opacity="0.2"/>
  <path d="M80 70C82 68 85 70 85 72C85 74 82 75 80 75C78 75 78 72 80 70Z" fill="#FF6B35" fill-opacity="0.2"/>
  
  <path d="M10 90C12 88 15 90 15 92C15 94 12 95 10 95C8 95 8 92 10 90Z" fill="#FF9F1C" fill-opacity="0.2"/>
  <path d="M30 90C32 88 35 90 35 92C35 94 32 95 30 95C28 95 28 92 30 90Z" fill="#FF6B35" fill-opacity="0.2"/>
  <path d="M50 90C52 88 55 90 55 92C55 94 52 95 50 95C48 95 48 92 50 90Z" fill="#2EC4B6" fill-opacity="0.2"/>
  <path d="M70 90C72 88 75 90 75 92C75 94 72 95 70 95C68 95 68 92 70 90Z" fill="#FF9F1C" fill-opacity="0.2"/>
  <path d="M90 90C92 88 95 90 95 92C95 94 92 95 90 95C88 95 88 92 90 90Z" fill="#FF6B35" fill-opacity="0.2"/>
</svg>
